<?xml version="1.0" encoding="UTF-8" standalone="no"?>
<!DOCTYPE svg PUBLIC "-//W3C//DTD SVG 1.1//EN"
 "http://www.w3.org/Graphics/SVG/1.1/DTD/svg11.dtd">
<!-- Generated by graphviz version 2.34.0 (20131219.0653)
 -->
<!-- Title: controllers_diagram Pages: 1 -->
<svg width="649pt" height="373pt"
 viewBox="0.00 0.00 649.37 373.00" xmlns="http://www.w3.org/2000/svg" xmlns:xlink="http://www.w3.org/1999/xlink">
<g id="graph0" class="graph" transform="scale(1 1) rotate(0) translate(4 369)">
<title>controllers_diagram</title>
<polygon fill="white" stroke="white" points="-4,4 -4,-369 645.372,-369 645.372,4 -4,4"/>
<!-- _diagram_info -->
<g id="node1" class="node"><title>_diagram_info</title>
<text text-anchor="start" x="442" y="-349.3" font-family="Times,serif" font-size="13.00">Controllers diagram</text>
<text text-anchor="start" x="442" y="-333.7" font-family="Times,serif" font-size="13.00">Date: Jan 02 2014 &#45; 13:19</text>
<text text-anchor="start" x="442" y="-318.1" font-family="Times,serif" font-size="13.00">Migration version: 20131231061457</text>
<text text-anchor="start" x="442" y="-302.5" font-family="Times,serif" font-size="13.00">Generated by RailRoady 1.1.1</text>
<text text-anchor="start" x="442" y="-286.9" font-family="Times,serif" font-size="13.00">http://railroady.prestonlee.com</text>
</g>
<!-- ApisController -->
<g id="node2" class="node"><title>ApisController</title>
<ellipse fill="none" stroke="black" cx="68.9685" cy="-53.5921" rx="68.9371" ry="18"/>
<text text-anchor="middle" x="68.9685" y="-49.3921" font-family="Times,serif" font-size="14.00">ApisController</text>
</g>
<!-- ApplicationController -->
<g id="node3" class="node"><title>ApplicationController</title>
<ellipse fill="none" stroke="black" cx="253.54" cy="-121.596" rx="96.1459" ry="18"/>
<text text-anchor="middle" x="253.54" y="-117.396" font-family="Times,serif" font-size="14.00">ApplicationController</text>
</g>
<!-- ApplicationController&#45;&gt;ApisController -->
<g id="edge1" class="edge"><title>ApplicationController&#45;&gt;ApisController</title>
<path fill="none" stroke="black" d="M209.799,-105.48C180.878,-94.8239 143.063,-80.8916 113.902,-70.1473"/>
<polyline fill="none" stroke="black" points="108.931,-68.3158 113.622,-70.0445 "/>
</g>
<!-- MessageFlagsController -->
<g id="node4" class="node"><title>MessageFlagsController</title>
<ellipse fill="none" stroke="black" cx="415.722" cy="-35.7994" rx="105.372" ry="18"/>
<text text-anchor="middle" x="415.722" y="-31.5994" font-family="Times,serif" font-size="14.00">MessageFlagsController</text>
</g>
<!-- ApplicationController&#45;&gt;MessageFlagsController -->
<g id="edge2" class="edge"><title>ApplicationController&#45;&gt;MessageFlagsController</title>
<path fill="none" stroke="black" d="M285.97,-104.44C312.622,-90.3405 350.403,-70.3539 378.327,-55.5817"/>
<polyline fill="none" stroke="black" points="383.071,-53.0724 378.651,-55.4105 "/>
</g>
<!-- RelationsController -->
<g id="node5" class="node"><title>RelationsController</title>
<ellipse fill="none" stroke="black" cx="284.022" cy="-227.074" rx="87.4137" ry="18"/>
<text text-anchor="middle" x="284.022" y="-222.874" font-family="Times,serif" font-size="14.00">RelationsController</text>
</g>
<!-- ApplicationController&#45;&gt;RelationsController -->
<g id="edge3" class="edge"><title>ApplicationController&#45;&gt;RelationsController</title>
<path fill="none" stroke="black" d="M258.85,-139.969C263.964,-157.665 271.72,-184.504 277.27,-203.711"/>
<polyline fill="none" stroke="black" points="278.773,-208.912 277.385,-204.109 "/>
</g>
<!-- MessagesController -->
<g id="node6" class="node"><title>MessagesController</title>
<ellipse fill="none" stroke="black" cx="441.071" cy="-193.691" rx="88.0384" ry="18"/>
<text text-anchor="middle" x="441.071" y="-189.491" font-family="Times,serif" font-size="14.00">MessagesController</text>
</g>
<!-- ApplicationController&#45;&gt;MessagesController -->
<g id="edge4" class="edge"><title>ApplicationController&#45;&gt;MessagesController</title>
<path fill="none" stroke="black" d="M296.094,-137.955C325.534,-149.273 364.689,-164.326 394.887,-175.936"/>
<polyline fill="none" stroke="black" points="399.654,-177.768 394.987,-175.974 "/>
</g>
<!-- UsersController -->
<g id="node7" class="node"><title>UsersController</title>
<ellipse fill="none" stroke="black" cx="94.096" cy="-211.198" rx="72.9276" ry="18"/>
<text text-anchor="middle" x="94.096" y="-206.998" font-family="Times,serif" font-size="14.00">UsersController</text>
</g>
<!-- ApplicationController&#45;&gt;UsersController -->
<g id="edge5" class="edge"><title>ApplicationController&#45;&gt;UsersController</title>
<path fill="none" stroke="black" d="M222.798,-138.872C195.654,-154.126 156.142,-176.33 128.07,-192.106"/>
<polyline fill="none" stroke="black" points="123.666,-194.58 128.025,-192.131 "/>
</g>
<!-- SessionsController -->
<g id="node8" class="node"><title>SessionsController</title>
<ellipse fill="none" stroke="black" cx="222.503" cy="-18" rx="83.9837" ry="18"/>
<text text-anchor="middle" x="222.503" y="-13.8" font-family="Times,serif" font-size="14.00">SessionsController</text>
</g>
<!-- ApplicationController&#45;&gt;SessionsController -->
<g id="edge6" class="edge"><title>ApplicationController&#45;&gt;SessionsController</title>
<path fill="none" stroke="black" d="M248.134,-103.551C242.959,-86.2764 235.125,-60.1313 229.481,-41.2922"/>
<polyline fill="none" stroke="black" points="227.951,-36.1858 229.386,-40.9755 "/>
</g>
</g>
</svg>
