<?xml version="1.0" encoding="UTF-8" standalone="no"?>
<!DOCTYPE svg PUBLIC "-//W3C//DTD SVG 1.1//EN"
 "http://www.w3.org/Graphics/SVG/1.1/DTD/svg11.dtd">
<!-- Generated by graphviz version 2.28.0 (20120809.0112)
 -->
<!-- Title: controllers_diagram Pages: 1 -->
<svg width="699pt" height="591pt"
 viewBox="0.00 0.00 698.88 591.10" xmlns="http://www.w3.org/2000/svg" xmlns:xlink="http://www.w3.org/1999/xlink">
<g id="graph1" class="graph" transform="scale(1 1) rotate(0) translate(4 587.102)">
<title>controllers_diagram</title>
<polygon fill="white" stroke="white" points="-4,5 -4,-587.102 695.88,-587.102 695.88,5 -4,5"/>
<!-- _diagram_info -->
<g id="node1" class="node"><title>_diagram_info</title>
<text text-anchor="start" x="491.508" y="-422.3" font-family="Times,serif" font-size="13.00">Controllers diagram</text>
<text text-anchor="start" x="491.508" y="-406.7" font-family="Times,serif" font-size="13.00">Date: Dec 19 2013 &#45; 15:28</text>
<text text-anchor="start" x="491.508" y="-391.1" font-family="Times,serif" font-size="13.00">Migration version: 20131219062007</text>
<text text-anchor="start" x="491.508" y="-375.5" font-family="Times,serif" font-size="13.00">Generated by RailRoady 1.1.1</text>
<text text-anchor="start" x="491.508" y="-359.9" font-family="Times,serif" font-size="13.00">http://railroady.prestonlee.com</text>
</g>
<!-- ApplicationController -->
<g id="node2" class="node"><title>ApplicationController</title>
<polyline fill="none" stroke="black" points="179.624,-243.202 295.266,-243.202 "/>
<path fill="none" stroke="black" d="M295.266,-243.202C301.266,-243.202 307.266,-249.202 307.266,-255.202"/>
<polyline fill="none" stroke="black" points="307.266,-255.202 307.266,-328.802 "/>
<path fill="none" stroke="black" d="M307.266,-328.802C307.266,-334.802 301.266,-340.802 295.266,-340.802"/>
<polyline fill="none" stroke="black" points="295.266,-340.802 179.624,-340.802 "/>
<path fill="none" stroke="black" d="M179.624,-340.802C173.624,-340.802 167.624,-334.802 167.624,-328.802"/>
<polyline fill="none" stroke="black" points="167.624,-328.802 167.624,-255.202 "/>
<path fill="none" stroke="black" d="M167.624,-255.202C167.624,-249.202 173.624,-243.202 179.624,-243.202"/>
<text text-anchor="middle" x="237.445" y="-324.202" font-family="Times,serif" font-size="14.00">ApplicationController</text>
<polyline fill="none" stroke="black" points="167.624,-316.002 307.266,-316.002 "/>
<polyline fill="none" stroke="black" points="167.624,-292.002 307.266,-292.002 "/>
<polyline fill="none" stroke="black" points="167.624,-268.002 307.266,-268.002 "/>
<text text-anchor="start" x="175.624" y="-251.402" font-family="Times,serif" font-size="14.00">_layout</text>
</g>
<!-- MessageFlagsController -->
<g id="node3" class="node"><title>MessageFlagsController</title>
<polyline fill="none" stroke="black" points="348.199,-62.0234 477.053,-62.0234 "/>
<path fill="none" stroke="black" d="M477.053,-62.0234C483.053,-62.0234 489.053,-68.0234 489.053,-74.0234"/>
<polyline fill="none" stroke="black" points="489.053,-74.0234 489.053,-282.823 "/>
<path fill="none" stroke="black" d="M489.053,-282.823C489.053,-288.823 483.053,-294.823 477.053,-294.823"/>
<polyline fill="none" stroke="black" points="477.053,-294.823 348.199,-294.823 "/>
<path fill="none" stroke="black" d="M348.199,-294.823C342.199,-294.823 336.199,-288.823 336.199,-282.823"/>
<polyline fill="none" stroke="black" points="336.199,-282.823 336.199,-74.0234 "/>
<path fill="none" stroke="black" d="M336.199,-74.0234C336.199,-68.0234 342.199,-62.0234 348.199,-62.0234"/>
<text text-anchor="middle" x="412.626" y="-278.223" font-family="Times,serif" font-size="14.00">MessageFlagsController</text>
<polyline fill="none" stroke="black" points="336.199,-270.023 489.053,-270.023 "/>
<text text-anchor="start" x="344.199" y="-253.423" font-family="Times,serif" font-size="14.00">create</text>
<text text-anchor="start" x="344.199" y="-236.623" font-family="Times,serif" font-size="14.00">destroy</text>
<text text-anchor="start" x="344.199" y="-219.823" font-family="Times,serif" font-size="14.00">edit</text>
<text text-anchor="start" x="344.199" y="-203.023" font-family="Times,serif" font-size="14.00">index</text>
<text text-anchor="start" x="344.199" y="-186.223" font-family="Times,serif" font-size="14.00">new</text>
<text text-anchor="start" x="344.199" y="-169.423" font-family="Times,serif" font-size="14.00">show</text>
<text text-anchor="start" x="344.199" y="-152.623" font-family="Times,serif" font-size="14.00">update</text>
<polyline fill="none" stroke="black" points="336.199,-144.423 489.053,-144.423 "/>
<polyline fill="none" stroke="black" points="336.199,-120.423 489.053,-120.423 "/>
<text text-anchor="start" x="344.199" y="-103.823" font-family="Times,serif" font-size="14.00">_layout</text>
<text text-anchor="start" x="344.199" y="-87.0234" font-family="Times,serif" font-size="14.00">message_flag_params</text>
<text text-anchor="start" x="344.199" y="-70.2234" font-family="Times,serif" font-size="14.00">set_message_flag</text>
</g>
<!-- ApplicationController&#45;&gt;MessageFlagsController -->
<g id="edge2" class="edge"><title>ApplicationController&#45;&gt;MessageFlagsController</title>
<path fill="none" stroke="black" d="M307.436,-246.623C316.871,-240.506 326.59,-234.205 336.131,-228.019"/>
</g>
<!-- RelationsController -->
<g id="node4" class="node"><title>RelationsController</title>
<polyline fill="none" stroke="black" points="72.8487,-0.5 175.275,-0.5 "/>
<path fill="none" stroke="black" d="M175.275,-0.5C181.275,-0.5 187.275,-6.5 187.275,-12.5"/>
<polyline fill="none" stroke="black" points="187.275,-12.5 187.275,-221.3 "/>
<path fill="none" stroke="black" d="M187.275,-221.3C187.275,-227.3 181.275,-233.3 175.275,-233.3"/>
<polyline fill="none" stroke="black" points="175.275,-233.3 72.8487,-233.3 "/>
<path fill="none" stroke="black" d="M72.8487,-233.3C66.8487,-233.3 60.8487,-227.3 60.8487,-221.3"/>
<polyline fill="none" stroke="black" points="60.8487,-221.3 60.8487,-12.5 "/>
<path fill="none" stroke="black" d="M60.8487,-12.5C60.8487,-6.5 66.8487,-0.5 72.8487,-0.5"/>
<text text-anchor="middle" x="124.062" y="-216.7" font-family="Times,serif" font-size="14.00">RelationsController</text>
<polyline fill="none" stroke="black" points="60.8487,-208.5 187.275,-208.5 "/>
<text text-anchor="start" x="68.8487" y="-191.9" font-family="Times,serif" font-size="14.00">create</text>
<text text-anchor="start" x="68.8487" y="-175.1" font-family="Times,serif" font-size="14.00">destroy</text>
<text text-anchor="start" x="68.8487" y="-158.3" font-family="Times,serif" font-size="14.00">edit</text>
<text text-anchor="start" x="68.8487" y="-141.5" font-family="Times,serif" font-size="14.00">index</text>
<text text-anchor="start" x="68.8487" y="-124.7" font-family="Times,serif" font-size="14.00">new</text>
<text text-anchor="start" x="68.8487" y="-107.9" font-family="Times,serif" font-size="14.00">show</text>
<text text-anchor="start" x="68.8487" y="-91.1" font-family="Times,serif" font-size="14.00">update</text>
<polyline fill="none" stroke="black" points="60.8487,-82.9 187.275,-82.9 "/>
<polyline fill="none" stroke="black" points="60.8487,-58.9 187.275,-58.9 "/>
<text text-anchor="start" x="68.8487" y="-42.3" font-family="Times,serif" font-size="14.00">_layout</text>
<text text-anchor="start" x="68.8487" y="-25.5" font-family="Times,serif" font-size="14.00">relation_params</text>
<text text-anchor="start" x="68.8487" y="-8.7" font-family="Times,serif" font-size="14.00">set_relation</text>
</g>
<!-- ApplicationController&#45;&gt;RelationsController -->
<g id="edge4" class="edge"><title>ApplicationController&#45;&gt;RelationsController</title>
<path fill="none" stroke="black" d="M205.56,-242.761C199.796,-233.859 193.606,-224.299 187.306,-214.571"/>
</g>
<!-- MessagesController -->
<g id="node5" class="node"><title>MessagesController</title>
<polyline fill="none" stroke="black" points="11.5084,-290.802 115.475,-290.802 "/>
<path fill="none" stroke="black" d="M115.475,-290.802C121.475,-290.802 127.475,-296.802 127.475,-302.802"/>
<polyline fill="none" stroke="black" points="127.475,-302.802 127.475,-511.602 "/>
<path fill="none" stroke="black" d="M127.475,-511.602C127.475,-517.602 121.475,-523.602 115.475,-523.602"/>
<polyline fill="none" stroke="black" points="115.475,-523.602 11.5084,-523.602 "/>
<path fill="none" stroke="black" d="M11.5084,-523.602C5.5084,-523.602 -0.4916,-517.602 -0.4916,-511.602"/>
<polyline fill="none" stroke="black" points="-0.4916,-511.602 -0.4916,-302.802 "/>
<path fill="none" stroke="black" d="M-0.4916,-302.802C-0.4916,-296.802 5.5084,-290.802 11.5084,-290.802"/>
<text text-anchor="middle" x="63.4916" y="-507.002" font-family="Times,serif" font-size="14.00">MessagesController</text>
<polyline fill="none" stroke="black" points="-0.4916,-498.802 127.475,-498.802 "/>
<text text-anchor="start" x="7.5084" y="-482.202" font-family="Times,serif" font-size="14.00">create</text>
<text text-anchor="start" x="7.5084" y="-465.402" font-family="Times,serif" font-size="14.00">destroy</text>
<text text-anchor="start" x="7.5084" y="-448.602" font-family="Times,serif" font-size="14.00">edit</text>
<text text-anchor="start" x="7.5084" y="-431.802" font-family="Times,serif" font-size="14.00">index</text>
<text text-anchor="start" x="7.5084" y="-415.002" font-family="Times,serif" font-size="14.00">new</text>
<text text-anchor="start" x="7.5084" y="-398.202" font-family="Times,serif" font-size="14.00">show</text>
<text text-anchor="start" x="7.5084" y="-381.402" font-family="Times,serif" font-size="14.00">update</text>
<polyline fill="none" stroke="black" points="-0.4916,-373.202 127.475,-373.202 "/>
<polyline fill="none" stroke="black" points="-0.4916,-349.202 127.475,-349.202 "/>
<text text-anchor="start" x="7.5084" y="-332.602" font-family="Times,serif" font-size="14.00">_layout</text>
<text text-anchor="start" x="7.5084" y="-315.802" font-family="Times,serif" font-size="14.00">message_params</text>
<text text-anchor="start" x="7.5084" y="-299.002" font-family="Times,serif" font-size="14.00">set_message</text>
</g>
<!-- ApplicationController&#45;&gt;MessagesController -->
<g id="edge6" class="edge"><title>ApplicationController&#45;&gt;MessagesController</title>
<path fill="none" stroke="black" d="M167.443,-338.36C154.321,-347.051 140.661,-356.097 127.724,-364.664"/>
</g>
<!-- UsersController -->
<g id="node6" class="node"><title>UsersController</title>
<polyline fill="none" stroke="black" points="311.913,-349.802 393.328,-349.802 "/>
<path fill="none" stroke="black" d="M393.328,-349.802C399.328,-349.802 405.328,-355.802 405.328,-361.802"/>
<polyline fill="none" stroke="black" points="405.328,-361.802 405.328,-570.602 "/>
<path fill="none" stroke="black" d="M405.328,-570.602C405.328,-576.602 399.328,-582.602 393.328,-582.602"/>
<polyline fill="none" stroke="black" points="393.328,-582.602 311.913,-582.602 "/>
<path fill="none" stroke="black" d="M311.913,-582.602C305.913,-582.602 299.913,-576.602 299.913,-570.602"/>
<polyline fill="none" stroke="black" points="299.913,-570.602 299.913,-361.802 "/>
<path fill="none" stroke="black" d="M299.913,-361.802C299.913,-355.802 305.913,-349.802 311.913,-349.802"/>
<text text-anchor="middle" x="352.62" y="-566.002" font-family="Times,serif" font-size="14.00">UsersController</text>
<polyline fill="none" stroke="black" points="299.913,-557.802 405.328,-557.802 "/>
<text text-anchor="start" x="307.913" y="-541.202" font-family="Times,serif" font-size="14.00">create</text>
<text text-anchor="start" x="307.913" y="-524.402" font-family="Times,serif" font-size="14.00">destroy</text>
<text text-anchor="start" x="307.913" y="-507.602" font-family="Times,serif" font-size="14.00">edit</text>
<text text-anchor="start" x="307.913" y="-490.802" font-family="Times,serif" font-size="14.00">index</text>
<text text-anchor="start" x="307.913" y="-474.002" font-family="Times,serif" font-size="14.00">new</text>
<text text-anchor="start" x="307.913" y="-457.202" font-family="Times,serif" font-size="14.00">show</text>
<text text-anchor="start" x="307.913" y="-440.402" font-family="Times,serif" font-size="14.00">update</text>
<polyline fill="none" stroke="black" points="299.913,-432.202 405.328,-432.202 "/>
<polyline fill="none" stroke="black" points="299.913,-408.202 405.328,-408.202 "/>
<text text-anchor="start" x="307.913" y="-391.602" font-family="Times,serif" font-size="14.00">_layout</text>
<text text-anchor="start" x="307.913" y="-374.802" font-family="Times,serif" font-size="14.00">set_user</text>
<text text-anchor="start" x="307.913" y="-358.002" font-family="Times,serif" font-size="14.00">user_params</text>
</g>
<!-- ApplicationController&#45;&gt;UsersController -->
<g id="edge8" class="edge"><title>ApplicationController&#45;&gt;UsersController</title>
<path fill="none" stroke="black" d="M269.834,-340.99C279.149,-355.079 289.56,-370.825 299.77,-386.268"/>
</g>
</g>
</svg>
