<?xml version="1.0" encoding="UTF-8" standalone="no"?>
<!DOCTYPE svg PUBLIC "-//W3C//DTD SVG 1.1//EN"
 "http://www.w3.org/Graphics/SVG/1.1/DTD/svg11.dtd">
<!-- Generated by graphviz version 2.34.0 (20131219.0653)
 -->
<!-- Title: controllers_diagram Pages: 1 -->
<svg width="743pt" height="733pt"
 viewBox="0.00 0.00 743.37 732.77" xmlns="http://www.w3.org/2000/svg" xmlns:xlink="http://www.w3.org/1999/xlink">
<g id="graph0" class="graph" transform="scale(1 1) rotate(0) translate(4 728.765)">
<title>controllers_diagram</title>
<polygon fill="white" stroke="white" points="-4,4 -4,-728.765 739.372,-728.765 739.372,4 -4,4"/>
<!-- _diagram_info -->
<g id="node1" class="node"><title>_diagram_info</title>
<text text-anchor="start" x="536" y="-166.3" font-family="Times,serif" font-size="13.00">Controllers diagram</text>
<text text-anchor="start" x="536" y="-150.7" font-family="Times,serif" font-size="13.00">Date: Jan 02 2014 &#45; 13:19</text>
<text text-anchor="start" x="536" y="-135.1" font-family="Times,serif" font-size="13.00">Migration version: 20131231061457</text>
<text text-anchor="start" x="536" y="-119.5" font-family="Times,serif" font-size="13.00">Generated by RailRoady 1.1.1</text>
<text text-anchor="start" x="536" y="-103.9" font-family="Times,serif" font-size="13.00">http://railroady.prestonlee.com</text>
</g>
<!-- ApisController -->
<g id="node2" class="node"><title>ApisController</title>
<path fill="none" stroke="black" d="M12,-239.122C12,-239.122 87.986,-239.122 87.986,-239.122 93.986,-239.122 99.986,-245.122 99.986,-251.122 99.986,-251.122 99.986,-459.922 99.986,-459.922 99.986,-465.922 93.986,-471.922 87.986,-471.922 87.986,-471.922 12,-471.922 12,-471.922 6,-471.922 -7.10543e-15,-465.922 -7.10543e-15,-459.922 -7.10543e-15,-459.922 -7.10543e-15,-251.122 -7.10543e-15,-251.122 -7.10543e-15,-245.122 6,-239.122 12,-239.122"/>
<text text-anchor="middle" x="49.993" y="-455.322" font-family="Times,serif" font-size="14.00">ApisController</text>
<polyline fill="none" stroke="black" points="-7.10543e-15,-447.122 99.986,-447.122 "/>
<text text-anchor="start" x="8" y="-430.522" font-family="Times,serif" font-size="14.00">create</text>
<text text-anchor="start" x="8" y="-413.722" font-family="Times,serif" font-size="14.00">destroy</text>
<text text-anchor="start" x="8" y="-396.922" font-family="Times,serif" font-size="14.00">edit</text>
<text text-anchor="start" x="8" y="-380.122" font-family="Times,serif" font-size="14.00">index</text>
<text text-anchor="start" x="8" y="-363.322" font-family="Times,serif" font-size="14.00">new</text>
<text text-anchor="start" x="8" y="-346.522" font-family="Times,serif" font-size="14.00">show</text>
<text text-anchor="start" x="8" y="-329.722" font-family="Times,serif" font-size="14.00">update</text>
<polyline fill="none" stroke="black" points="-7.10543e-15,-321.522 99.986,-321.522 "/>
<polyline fill="none" stroke="black" points="-7.10543e-15,-297.522 99.986,-297.522 "/>
<text text-anchor="start" x="8" y="-280.922" font-family="Times,serif" font-size="14.00">_layout</text>
<text text-anchor="start" x="8" y="-264.122" font-family="Times,serif" font-size="14.00">api_params</text>
<text text-anchor="start" x="8" y="-247.322" font-family="Times,serif" font-size="14.00">set_api</text>
</g>
<!-- ApplicationController -->
<g id="node3" class="node"><title>ApplicationController</title>
<path fill="none" stroke="black" d="M177.167,-311.392C177.167,-311.392 292.809,-311.392 292.809,-311.392 298.809,-311.392 304.809,-317.392 304.809,-323.392 304.809,-323.392 304.809,-396.992 304.809,-396.992 304.809,-402.992 298.809,-408.992 292.809,-408.992 292.809,-408.992 177.167,-408.992 177.167,-408.992 171.167,-408.992 165.167,-402.992 165.167,-396.992 165.167,-396.992 165.167,-323.392 165.167,-323.392 165.167,-317.392 171.167,-311.392 177.167,-311.392"/>
<text text-anchor="middle" x="234.988" y="-392.392" font-family="Times,serif" font-size="14.00">ApplicationController</text>
<polyline fill="none" stroke="black" points="165.167,-384.192 304.809,-384.192 "/>
<polyline fill="none" stroke="black" points="165.167,-360.192 304.809,-360.192 "/>
<polyline fill="none" stroke="black" points="165.167,-336.192 304.809,-336.192 "/>
<text text-anchor="start" x="173.167" y="-319.592" font-family="Times,serif" font-size="14.00">_layout</text>
</g>
<!-- ApplicationController&#45;&gt;ApisController -->
<g id="edge1" class="edge"><title>ApplicationController&#45;&gt;ApisController</title>
<path fill="none" stroke="black" d="M165.049,-358.426C145.315,-357.928 124.122,-357.393 105.37,-356.92"/>
<polyline fill="none" stroke="black" points="100.149,-356.788 105.147,-356.914 "/>
</g>
<!-- MessageFlagsController -->
<g id="node4" class="node"><title>MessageFlagsController</title>
<path fill="none" stroke="black" d="M309.412,-0.5C309.412,-0.5 438.266,-0.5 438.266,-0.5 444.266,-0.5 450.266,-6.5 450.266,-12.5 450.266,-12.5 450.266,-221.3 450.266,-221.3 450.266,-227.3 444.266,-233.3 438.266,-233.3 438.266,-233.3 309.412,-233.3 309.412,-233.3 303.412,-233.3 297.412,-227.3 297.412,-221.3 297.412,-221.3 297.412,-12.5 297.412,-12.5 297.412,-6.5 303.412,-0.5 309.412,-0.5"/>
<text text-anchor="middle" x="373.839" y="-216.7" font-family="Times,serif" font-size="14.00">MessageFlagsController</text>
<polyline fill="none" stroke="black" points="297.412,-208.5 450.266,-208.5 "/>
<text text-anchor="start" x="305.412" y="-191.9" font-family="Times,serif" font-size="14.00">create</text>
<text text-anchor="start" x="305.412" y="-175.1" font-family="Times,serif" font-size="14.00">destroy</text>
<text text-anchor="start" x="305.412" y="-158.3" font-family="Times,serif" font-size="14.00">edit</text>
<text text-anchor="start" x="305.412" y="-141.5" font-family="Times,serif" font-size="14.00">index</text>
<text text-anchor="start" x="305.412" y="-124.7" font-family="Times,serif" font-size="14.00">new</text>
<text text-anchor="start" x="305.412" y="-107.9" font-family="Times,serif" font-size="14.00">show</text>
<text text-anchor="start" x="305.412" y="-91.1" font-family="Times,serif" font-size="14.00">update</text>
<polyline fill="none" stroke="black" points="297.412,-82.9 450.266,-82.9 "/>
<polyline fill="none" stroke="black" points="297.412,-58.9 450.266,-58.9 "/>
<text text-anchor="start" x="305.412" y="-42.3" font-family="Times,serif" font-size="14.00">_layout</text>
<text text-anchor="start" x="305.412" y="-25.5" font-family="Times,serif" font-size="14.00">message_flag_params</text>
<text text-anchor="start" x="305.412" y="-8.7" font-family="Times,serif" font-size="14.00">set_message_flag</text>
</g>
<!-- ApplicationController&#45;&gt;MessageFlagsController -->
<g id="edge2" class="edge"><title>ApplicationController&#45;&gt;MessageFlagsController</title>
<path fill="none" stroke="black" d="M262.919,-311.251C275.085,-289.935 289.934,-263.916 304.763,-237.933"/>
<polyline fill="none" stroke="black" points="307.336,-233.425 304.858,-237.768 "/>
</g>
<!-- RelationsController -->
<g id="node5" class="node"><title>RelationsController</title>
<path fill="none" stroke="black" d="M319.246,-491.465C319.246,-491.465 421.673,-491.465 421.673,-491.465 427.673,-491.465 433.673,-497.465 433.673,-503.465 433.673,-503.465 433.673,-712.265 433.673,-712.265 433.673,-718.265 427.673,-724.265 421.673,-724.265 421.673,-724.265 319.246,-724.265 319.246,-724.265 313.246,-724.265 307.246,-718.265 307.246,-712.265 307.246,-712.265 307.246,-503.465 307.246,-503.465 307.246,-497.465 313.246,-491.465 319.246,-491.465"/>
<text text-anchor="middle" x="370.459" y="-707.665" font-family="Times,serif" font-size="14.00">RelationsController</text>
<polyline fill="none" stroke="black" points="307.246,-699.465 433.673,-699.465 "/>
<text text-anchor="start" x="315.246" y="-682.865" font-family="Times,serif" font-size="14.00">create</text>
<text text-anchor="start" x="315.246" y="-666.065" font-family="Times,serif" font-size="14.00">destroy</text>
<text text-anchor="start" x="315.246" y="-649.265" font-family="Times,serif" font-size="14.00">edit</text>
<text text-anchor="start" x="315.246" y="-632.465" font-family="Times,serif" font-size="14.00">index</text>
<text text-anchor="start" x="315.246" y="-615.665" font-family="Times,serif" font-size="14.00">new</text>
<text text-anchor="start" x="315.246" y="-598.865" font-family="Times,serif" font-size="14.00">show</text>
<text text-anchor="start" x="315.246" y="-582.065" font-family="Times,serif" font-size="14.00">update</text>
<polyline fill="none" stroke="black" points="307.246,-573.865 433.673,-573.865 "/>
<polyline fill="none" stroke="black" points="307.246,-549.865 433.673,-549.865 "/>
<text text-anchor="start" x="315.246" y="-533.265" font-family="Times,serif" font-size="14.00">_layout</text>
<text text-anchor="start" x="315.246" y="-516.465" font-family="Times,serif" font-size="14.00">relation_params</text>
<text text-anchor="start" x="315.246" y="-499.665" font-family="Times,serif" font-size="14.00">set_relation</text>
</g>
<!-- ApplicationController&#45;&gt;RelationsController -->
<g id="edge3" class="edge"><title>ApplicationController&#45;&gt;RelationsController</title>
<path fill="none" stroke="black" d="M261.753,-409.124C274.159,-431.806 289.503,-459.858 304.713,-487.666"/>
<polyline fill="none" stroke="black" points="307.153,-492.125 304.753,-487.739 "/>
</g>
<!-- MessagesController -->
<g id="node6" class="node"><title>MessagesController</title>
<path fill="none" stroke="black" d="M368.093,-249.011C368.093,-249.011 472.059,-249.011 472.059,-249.011 478.059,-249.011 484.059,-255.011 484.059,-261.011 484.059,-261.011 484.059,-469.811 484.059,-469.811 484.059,-475.811 478.059,-481.811 472.059,-481.811 472.059,-481.811 368.093,-481.811 368.093,-481.811 362.093,-481.811 356.093,-475.811 356.093,-469.811 356.093,-469.811 356.093,-261.011 356.093,-261.011 356.093,-255.011 362.093,-249.011 368.093,-249.011"/>
<text text-anchor="middle" x="420.076" y="-465.211" font-family="Times,serif" font-size="14.00">MessagesController</text>
<polyline fill="none" stroke="black" points="356.093,-457.011 484.059,-457.011 "/>
<text text-anchor="start" x="364.093" y="-440.411" font-family="Times,serif" font-size="14.00">create</text>
<text text-anchor="start" x="364.093" y="-423.611" font-family="Times,serif" font-size="14.00">destroy</text>
<text text-anchor="start" x="364.093" y="-406.811" font-family="Times,serif" font-size="14.00">edit</text>
<text text-anchor="start" x="364.093" y="-390.011" font-family="Times,serif" font-size="14.00">index</text>
<text text-anchor="start" x="364.093" y="-373.211" font-family="Times,serif" font-size="14.00">new</text>
<text text-anchor="start" x="364.093" y="-356.411" font-family="Times,serif" font-size="14.00">show</text>
<text text-anchor="start" x="364.093" y="-339.611" font-family="Times,serif" font-size="14.00">update</text>
<polyline fill="none" stroke="black" points="356.093,-331.411 484.059,-331.411 "/>
<polyline fill="none" stroke="black" points="356.093,-307.411 484.059,-307.411 "/>
<text text-anchor="start" x="364.093" y="-290.811" font-family="Times,serif" font-size="14.00">_layout</text>
<text text-anchor="start" x="364.093" y="-274.011" font-family="Times,serif" font-size="14.00">message_params</text>
<text text-anchor="start" x="364.093" y="-257.211" font-family="Times,serif" font-size="14.00">set_message</text>
</g>
<!-- ApplicationController&#45;&gt;MessagesController -->
<g id="edge4" class="edge"><title>ApplicationController&#45;&gt;MessagesController</title>
<path fill="none" stroke="black" d="M304.962,-362.165C319.953,-362.588 335.787,-363.034 350.754,-363.456"/>
<polyline fill="none" stroke="black" points="355.794,-363.598 350.796,-363.457 "/>
</g>
<!-- UsersController -->
<g id="node7" class="node"><title>UsersController</title>
<path fill="none" stroke="black" d="M55.7148,-487.661C55.7148,-487.661 137.13,-487.661 137.13,-487.661 143.13,-487.661 149.13,-493.661 149.13,-499.661 149.13,-499.661 149.13,-708.461 149.13,-708.461 149.13,-714.461 143.13,-720.461 137.13,-720.461 137.13,-720.461 55.7148,-720.461 55.7148,-720.461 49.7148,-720.461 43.7148,-714.461 43.7148,-708.461 43.7148,-708.461 43.7148,-499.661 43.7148,-499.661 43.7148,-493.661 49.7148,-487.661 55.7148,-487.661"/>
<text text-anchor="middle" x="96.4224" y="-703.861" font-family="Times,serif" font-size="14.00">UsersController</text>
<polyline fill="none" stroke="black" points="43.7148,-695.661 149.13,-695.661 "/>
<text text-anchor="start" x="51.7148" y="-679.061" font-family="Times,serif" font-size="14.00">create</text>
<text text-anchor="start" x="51.7148" y="-662.261" font-family="Times,serif" font-size="14.00">destroy</text>
<text text-anchor="start" x="51.7148" y="-645.461" font-family="Times,serif" font-size="14.00">edit</text>
<text text-anchor="start" x="51.7148" y="-628.661" font-family="Times,serif" font-size="14.00">index</text>
<text text-anchor="start" x="51.7148" y="-611.861" font-family="Times,serif" font-size="14.00">new</text>
<text text-anchor="start" x="51.7148" y="-595.061" font-family="Times,serif" font-size="14.00">show</text>
<text text-anchor="start" x="51.7148" y="-578.261" font-family="Times,serif" font-size="14.00">update</text>
<polyline fill="none" stroke="black" points="43.7148,-570.061 149.13,-570.061 "/>
<polyline fill="none" stroke="black" points="43.7148,-546.061 149.13,-546.061 "/>
<text text-anchor="start" x="51.7148" y="-529.461" font-family="Times,serif" font-size="14.00">_layout</text>
<text text-anchor="start" x="51.7148" y="-512.661" font-family="Times,serif" font-size="14.00">set_user</text>
<text text-anchor="start" x="51.7148" y="-495.861" font-family="Times,serif" font-size="14.00">user_params</text>
</g>
<!-- ApplicationController&#45;&gt;UsersController -->
<g id="edge5" class="edge"><title>ApplicationController&#45;&gt;UsersController</title>
<path fill="none" stroke="black" d="M207.114,-409.249C191.231,-437.203 170.761,-473.228 151.753,-506.681"/>
<polyline fill="none" stroke="black" points="149.203,-511.17 151.673,-506.823 "/>
</g>
<!-- SessionsController -->
<g id="node8" class="node"><title>SessionsController</title>
<path fill="none" stroke="black" d="M50.8301,-47.0618C50.8301,-47.0618 148.596,-47.0618 148.596,-47.0618 154.596,-47.0618 160.596,-53.0618 160.596,-59.0618 160.596,-59.0618 160.596,-167.062 160.596,-167.062 160.596,-173.062 154.596,-179.062 148.596,-179.062 148.596,-179.062 50.8301,-179.062 50.8301,-179.062 44.8301,-179.062 38.8301,-173.062 38.8301,-167.062 38.8301,-167.062 38.8301,-59.0618 38.8301,-59.0618 38.8301,-53.0618 44.8301,-47.0618 50.8301,-47.0618"/>
<text text-anchor="middle" x="99.713" y="-162.462" font-family="Times,serif" font-size="14.00">SessionsController</text>
<polyline fill="none" stroke="black" points="38.8301,-154.262 160.596,-154.262 "/>
<text text-anchor="start" x="46.8301" y="-137.662" font-family="Times,serif" font-size="14.00">create</text>
<text text-anchor="start" x="46.8301" y="-120.862" font-family="Times,serif" font-size="14.00">destroy</text>
<text text-anchor="start" x="46.8301" y="-104.062" font-family="Times,serif" font-size="14.00">new</text>
<polyline fill="none" stroke="black" points="38.8301,-95.8618 160.596,-95.8618 "/>
<polyline fill="none" stroke="black" points="38.8301,-71.8618 160.596,-71.8618 "/>
<text text-anchor="start" x="46.8301" y="-55.2618" font-family="Times,serif" font-size="14.00">_layout</text>
</g>
<!-- ApplicationController&#45;&gt;SessionsController -->
<g id="edge6" class="edge"><title>ApplicationController&#45;&gt;SessionsController</title>
<path fill="none" stroke="black" d="M208.262,-311.367C188.278,-274.858 160.661,-224.405 138.285,-183.527"/>
<polyline fill="none" stroke="black" points="135.86,-179.098 138.261,-183.484 "/>
</g>
</g>
</svg>
