<?xml version="1.0" encoding="UTF-8" standalone="no"?>
<!DOCTYPE svg PUBLIC "-//W3C//DTD SVG 1.1//EN"
 "http://www.w3.org/Graphics/SVG/1.1/DTD/svg11.dtd">
<!-- Generated by graphviz version 2.34.0 (20131219.0653)
 -->
<!-- Title: models_diagram Pages: 1 -->
<svg width="537pt" height="690pt"
 viewBox="0.00 0.00 537.11 690.00" xmlns="http://www.w3.org/2000/svg" xmlns:xlink="http://www.w3.org/1999/xlink">
<g id="graph0" class="graph" transform="scale(1 1) rotate(0) translate(4 686)">
<title>models_diagram</title>
<polygon fill="white" stroke="white" points="-4,4 -4,-686 533.113,-686 533.113,4 -4,4"/>
<!-- _diagram_info -->
<g id="node1" class="node"><title>_diagram_info</title>
<text text-anchor="start" x="7.31415" y="-666.3" font-family="Times,serif" font-size="13.00">Models diagram</text>
<text text-anchor="start" x="7.31415" y="-650.7" font-family="Times,serif" font-size="13.00">Date: Jan 02 2014 &#45; 13:19</text>
<text text-anchor="start" x="7.31415" y="-635.1" font-family="Times,serif" font-size="13.00">Migration version: 20131231061457</text>
<text text-anchor="start" x="7.31415" y="-619.5" font-family="Times,serif" font-size="13.00">Generated by RailRoady 1.1.1</text>
<text text-anchor="start" x="7.31415" y="-603.9" font-family="Times,serif" font-size="13.00">http://railroady.prestonlee.com</text>
</g>
<!-- Api -->
<g id="node2" class="node"><title>Api</title>
<path fill="none" stroke="black" d="M60.4891,-392.2C60.4891,-392.2 169.511,-392.2 169.511,-392.2 175.511,-392.2 181.511,-398.2 181.511,-404.2 181.511,-404.2 181.511,-513.8 181.511,-513.8 181.511,-519.8 175.511,-525.8 169.511,-525.8 169.511,-525.8 60.4891,-525.8 60.4891,-525.8 54.4891,-525.8 48.4891,-519.8 48.4891,-513.8 48.4891,-513.8 48.4891,-404.2 48.4891,-404.2 48.4891,-398.2 54.4891,-392.2 60.4891,-392.2"/>
<text text-anchor="middle" x="115" y="-509.2" font-family="Times,serif" font-size="14.00">Api</text>
<polyline fill="none" stroke="black" points="48.4891,-501 181.511,-501 "/>
<text text-anchor="start" x="56.4891" y="-484.4" font-family="Times,serif" font-size="14.00">id :integer</text>
<text text-anchor="start" x="56.4891" y="-467.6" font-family="Times,serif" font-size="14.00">ip :string</text>
<text text-anchor="start" x="56.4891" y="-450.8" font-family="Times,serif" font-size="14.00">imsi :string</text>
<text text-anchor="start" x="56.4891" y="-434" font-family="Times,serif" font-size="14.00">ecgi :string</text>
<text text-anchor="start" x="56.4891" y="-417.2" font-family="Times,serif" font-size="14.00">created_at :datetime</text>
<text text-anchor="start" x="56.4891" y="-400.4" font-family="Times,serif" font-size="14.00">updated_at :datetime</text>
</g>
<!-- MessageFlag -->
<g id="node3" class="node"><title>MessageFlag</title>
<path fill="none" stroke="black" d="M254.489,-0.6C254.489,-0.6 363.511,-0.6 363.511,-0.6 369.511,-0.6 375.511,-6.6 375.511,-12.6 375.511,-12.6 375.511,-105.4 375.511,-105.4 375.511,-111.4 369.511,-117.4 363.511,-117.4 363.511,-117.4 254.489,-117.4 254.489,-117.4 248.489,-117.4 242.489,-111.4 242.489,-105.4 242.489,-105.4 242.489,-12.6 242.489,-12.6 242.489,-6.6 248.489,-0.6 254.489,-0.6"/>
<text text-anchor="middle" x="309" y="-100.8" font-family="Times,serif" font-size="14.00">MessageFlag</text>
<polyline fill="none" stroke="black" points="242.489,-92.6 375.511,-92.6 "/>
<text text-anchor="start" x="250.489" y="-76" font-family="Times,serif" font-size="14.00">id :integer</text>
<text text-anchor="start" x="250.489" y="-59.2" font-family="Times,serif" font-size="14.00">message_id :integer</text>
<text text-anchor="start" x="250.489" y="-42.4" font-family="Times,serif" font-size="14.00">user_id :integer</text>
<text text-anchor="start" x="250.489" y="-25.6" font-family="Times,serif" font-size="14.00">created_at :datetime</text>
<text text-anchor="start" x="250.489" y="-8.8" font-family="Times,serif" font-size="14.00">updated_at :datetime</text>
</g>
<!-- Relation -->
<g id="node4" class="node"><title>Relation</title>
<path fill="none" stroke="black" d="M349.102,-154.4C349.102,-154.4 458.898,-154.4 458.898,-154.4 464.898,-154.4 470.898,-160.4 470.898,-166.4 470.898,-166.4 470.898,-309.6 470.898,-309.6 470.898,-315.6 464.898,-321.6 458.898,-321.6 458.898,-321.6 349.102,-321.6 349.102,-321.6 343.102,-321.6 337.102,-315.6 337.102,-309.6 337.102,-309.6 337.102,-166.4 337.102,-166.4 337.102,-160.4 343.102,-154.4 349.102,-154.4"/>
<text text-anchor="middle" x="404" y="-305" font-family="Times,serif" font-size="14.00">Relation</text>
<polyline fill="none" stroke="black" points="337.102,-296.8 470.898,-296.8 "/>
<text text-anchor="start" x="345.102" y="-280.2" font-family="Times,serif" font-size="14.00">id :integer</text>
<text text-anchor="start" x="345.102" y="-263.4" font-family="Times,serif" font-size="14.00">user_from :integer</text>
<text text-anchor="start" x="345.102" y="-246.6" font-family="Times,serif" font-size="14.00">user_to :integer</text>
<text text-anchor="start" x="345.102" y="-229.8" font-family="Times,serif" font-size="14.00">event_entry :boolean</text>
<text text-anchor="start" x="345.102" y="-213" font-family="Times,serif" font-size="14.00">event_exit :boolean</text>
<text text-anchor="start" x="345.102" y="-196.2" font-family="Times,serif" font-size="14.00">event_post :boolean</text>
<text text-anchor="start" x="345.102" y="-179.4" font-family="Times,serif" font-size="14.00">created_at :datetime</text>
<text text-anchor="start" x="345.102" y="-162.6" font-family="Times,serif" font-size="14.00">updated_at :datetime</text>
</g>
<!-- Message -->
<g id="node5" class="node"><title>Message</title>
<path fill="none" stroke="black" d="M157.319,-171.2C157.319,-171.2 268.681,-171.2 268.681,-171.2 274.681,-171.2 280.681,-177.2 280.681,-183.2 280.681,-183.2 280.681,-292.8 280.681,-292.8 280.681,-298.8 274.681,-304.8 268.681,-304.8 268.681,-304.8 157.319,-304.8 157.319,-304.8 151.319,-304.8 145.319,-298.8 145.319,-292.8 145.319,-292.8 145.319,-183.2 145.319,-183.2 145.319,-177.2 151.319,-171.2 157.319,-171.2"/>
<text text-anchor="middle" x="213" y="-288.2" font-family="Times,serif" font-size="14.00">Message</text>
<polyline fill="none" stroke="black" points="145.319,-280 280.681,-280 "/>
<text text-anchor="start" x="153.319" y="-263.4" font-family="Times,serif" font-size="14.00">id :integer</text>
<text text-anchor="start" x="153.319" y="-246.6" font-family="Times,serif" font-size="14.00">message :string</text>
<text text-anchor="start" x="153.319" y="-229.8" font-family="Times,serif" font-size="14.00">message_img :binary</text>
<text text-anchor="start" x="153.319" y="-213" font-family="Times,serif" font-size="14.00">user_id :integer</text>
<text text-anchor="start" x="153.319" y="-196.2" font-family="Times,serif" font-size="14.00">created_at :datetime</text>
<text text-anchor="start" x="153.319" y="-179.4" font-family="Times,serif" font-size="14.00">updated_at :datetime</text>
</g>
<!-- Message&#45;&gt;MessageFlag -->
<g id="edge4" class="edge"><title>Message&#45;&gt;MessageFlag</title>
<path fill="none" stroke="#be3175" d="M252.582,-164.021C259.348,-151.545 266.346,-138.644 273.012,-126.352"/>
<ellipse fill="none" stroke="#be3175" cx="250.654" cy="-167.576" rx="4.00002" ry="4.00002"/>
<polygon fill="#be3175" stroke="#be3175" points="273.033,-126.314 281.756,-119.67 275.417,-121.919 277.8,-117.524 277.8,-117.524 277.8,-117.524 275.417,-121.919 273.845,-115.379 273.033,-126.314 273.033,-126.314"/>
</g>
<!-- User -->
<g id="node6" class="node"><title>User</title>
<path fill="none" stroke="black" d="M249.936,-358.6C249.936,-358.6 376.064,-358.6 376.064,-358.6 382.064,-358.6 388.064,-364.6 388.064,-370.6 388.064,-370.6 388.064,-547.4 388.064,-547.4 388.064,-553.4 382.064,-559.4 376.064,-559.4 376.064,-559.4 249.936,-559.4 249.936,-559.4 243.936,-559.4 237.936,-553.4 237.936,-547.4 237.936,-547.4 237.936,-370.6 237.936,-370.6 237.936,-364.6 243.936,-358.6 249.936,-358.6"/>
<text text-anchor="middle" x="313" y="-542.8" font-family="Times,serif" font-size="14.00">User</text>
<polyline fill="none" stroke="black" points="237.936,-534.6 388.064,-534.6 "/>
<text text-anchor="start" x="245.936" y="-518" font-family="Times,serif" font-size="14.00">id :integer</text>
<text text-anchor="start" x="245.936" y="-501.2" font-family="Times,serif" font-size="14.00">user_name :string</text>
<text text-anchor="start" x="245.936" y="-484.4" font-family="Times,serif" font-size="14.00">phone_no :string</text>
<text text-anchor="start" x="245.936" y="-467.6" font-family="Times,serif" font-size="14.00">imsi :string</text>
<text text-anchor="start" x="245.936" y="-450.8" font-family="Times,serif" font-size="14.00">ecgi :string</text>
<text text-anchor="start" x="245.936" y="-434" font-family="Times,serif" font-size="14.00">description :string</text>
<text text-anchor="start" x="245.936" y="-417.2" font-family="Times,serif" font-size="14.00">profile_img :binary</text>
<text text-anchor="start" x="245.936" y="-400.4" font-family="Times,serif" font-size="14.00">created_at :datetime</text>
<text text-anchor="start" x="245.936" y="-383.6" font-family="Times,serif" font-size="14.00">updated_at :datetime</text>
<text text-anchor="start" x="245.936" y="-366.8" font-family="Times,serif" font-size="14.00">remember_token :string</text>
</g>
<!-- User&#45;&gt;MessageFlag -->
<g id="edge7" class="edge"><title>User&#45;&gt;MessageFlag</title>
<path fill="none" stroke="#2986e9" d="M311.919,-350.487C311.207,-279.587 310.295,-188.882 309.682,-127.849"/>
<ellipse fill="none" stroke="#2986e9" cx="311.961" cy="-354.595" rx="4" ry="4"/>
<polygon fill="#2986e9" stroke="#2986e9" points="309.679,-127.563 314.078,-117.518 309.629,-122.563 309.579,-117.564 309.579,-117.564 309.579,-117.564 309.629,-122.563 305.079,-117.609 309.679,-127.563 309.679,-127.563"/>
</g>
<!-- User&#45;&gt;Relation -->
<g id="edge8" class="edge"><title>User&#45;&gt;Relation</title>
<path fill="none" stroke="#727dd3" d="M357.498,-350.912C360.247,-344.295 363.002,-337.666 365.721,-331.123"/>
<ellipse fill="none" stroke="#727dd3" cx="355.908" cy="-354.739" rx="4.00002" ry="4.00002"/>
<polygon fill="#727dd3" stroke="#727dd3" points="365.837,-330.842 373.83,-323.334 367.756,-326.225 369.675,-321.607 369.675,-321.607 369.675,-321.607 367.756,-326.225 365.519,-319.881 365.837,-330.842 365.837,-330.842"/>
</g>
<!-- User&#45;&gt;Message -->
<g id="edge6" class="edge"><title>User&#45;&gt;Message</title>
<path fill="none" stroke="#540115" d="M264.045,-350.79C258.428,-338.488 252.793,-326.147 247.424,-314.39"/>
<ellipse fill="none" stroke="#540115" cx="265.874" cy="-354.794" rx="4.00002" ry="4.00002"/>
<polygon fill="#540115" stroke="#540115" points="247.335,-314.194 247.275,-303.228 245.258,-309.645 243.181,-305.097 243.181,-305.097 243.181,-305.097 245.258,-309.645 239.088,-306.966 247.335,-314.194 247.335,-314.194"/>
</g>
<!-- ActiveRecord::Base -->
<g id="node7" class="node"><title>ActiveRecord::Base</title>
<ellipse fill="none" stroke="black" cx="313" cy="-639" rx="88.1999" ry="18"/>
<text text-anchor="middle" x="313" y="-634.8" font-family="Times,serif" font-size="14.00">ActiveRecord::Base</text>
</g>
<!-- ActiveRecord::Base&#45;&gt;Api -->
<g id="edge1" class="edge"><title>ActiveRecord::Base&#45;&gt;Api</title>
<path fill="none" stroke="black" d="M283.849,-621.929C259.057,-607.505 223.247,-584.829 196,-560 185.999,-550.886 176.196,-540.488 167.058,-529.923"/>
<polyline fill="none" stroke="black" points="163.722,-526.025 166.974,-529.824 "/>
</g>
<!-- ActiveRecord::Base&#45;&gt;MessageFlag -->
<g id="edge2" class="edge"><title>ActiveRecord::Base&#45;&gt;MessageFlag</title>
<path fill="none" stroke="black" d="M347.53,-622.291C372.529,-609.148 405.121,-588.034 424,-560 525.715,-408.964 571.501,-310.848 479,-154 457.685,-117.858 416.936,-94.6438 380.677,-80.328"/>
<polyline fill="none" stroke="black" points="375.822,-78.4533 380.486,-80.2546 "/>
</g>
<!-- ActiveRecord::Base&#45;&gt;Relation -->
<g id="edge3" class="edge"><title>ActiveRecord::Base&#45;&gt;Relation</title>
<path fill="none" stroke="black" d="M340.014,-621.571C359.799,-607.851 385.178,-586.324 397,-560 429.996,-486.529 427.976,-393.739 419.955,-326.841"/>
<polyline fill="none" stroke="black" points="419.317,-321.666 419.929,-326.628 "/>
</g>
<!-- ActiveRecord::Base&#45;&gt;Message -->
<g id="edge5" class="edge"><title>ActiveRecord::Base&#45;&gt;Message</title>
<path fill="none" stroke="black" d="M286.599,-621.76C266.869,-608.002 241.274,-586.336 229,-560 191.958,-480.517 194.366,-377.65 201.747,-310.062"/>
<polyline fill="none" stroke="black" points="202.334,-304.853 201.774,-309.822 "/>
</g>
<!-- ActiveRecord::Base&#45;&gt;User -->
<g id="edge9" class="edge"><title>ActiveRecord::Base&#45;&gt;User</title>
<path fill="none" stroke="black" d="M313,-620.933C313,-607.238 313,-586.756 313,-564.954"/>
<polyline fill="none" stroke="black" points="313,-559.688 313,-564.688 "/>
</g>
</g>
</svg>
