<?xml version="1.0" encoding="UTF-8" standalone="no"?>
<!DOCTYPE svg PUBLIC "-//W3C//DTD SVG 1.1//EN"
 "http://www.w3.org/Graphics/SVG/1.1/DTD/svg11.dtd">
<!-- Generated by graphviz version 2.34.0 (20131219.0653)
 -->
<!-- Title: models_diagram Pages: 1 -->
<svg width="452pt" height="310pt"
 viewBox="0.00 0.00 451.97 310.00" xmlns="http://www.w3.org/2000/svg" xmlns:xlink="http://www.w3.org/1999/xlink">
<g id="graph0" class="graph" transform="scale(1 1) rotate(0) translate(4 306)">
<title>models_diagram</title>
<polygon fill="white" stroke="white" points="-4,4 -4,-306 447.973,-306 447.973,4 -4,4"/>
<!-- _diagram_info -->
<g id="node1" class="node"><title>_diagram_info</title>
<text text-anchor="start" x="7.31415" y="-286.3" font-family="Times,serif" font-size="13.00">Models diagram</text>
<text text-anchor="start" x="7.31415" y="-270.7" font-family="Times,serif" font-size="13.00">Date: Jan 02 2014 &#45; 13:19</text>
<text text-anchor="start" x="7.31415" y="-255.1" font-family="Times,serif" font-size="13.00">Migration version: 20131231061457</text>
<text text-anchor="start" x="7.31415" y="-239.5" font-family="Times,serif" font-size="13.00">Generated by RailRoady 1.1.1</text>
<text text-anchor="start" x="7.31415" y="-223.9" font-family="Times,serif" font-size="13.00">http://railroady.prestonlee.com</text>
</g>
<!-- Api -->
<g id="node2" class="node"><title>Api</title>
<ellipse fill="none" stroke="black" cx="201" cy="-162" rx="27" ry="18"/>
<text text-anchor="middle" x="201" y="-157.8" font-family="Times,serif" font-size="14.00">Api</text>
</g>
<!-- MessageFlag -->
<g id="node3" class="node"><title>MessageFlag</title>
<ellipse fill="none" stroke="black" cx="309" cy="-18" rx="61.4814" ry="18"/>
<text text-anchor="middle" x="309" y="-13.8" font-family="Times,serif" font-size="14.00">MessageFlag</text>
</g>
<!-- Relation -->
<g id="node4" class="node"><title>Relation</title>
<ellipse fill="none" stroke="black" cx="381" cy="-90" rx="43.1406" ry="18"/>
<text text-anchor="middle" x="381" y="-85.8" font-family="Times,serif" font-size="14.00">Relation</text>
</g>
<!-- Message -->
<g id="node5" class="node"><title>Message</title>
<ellipse fill="none" stroke="black" cx="236" cy="-90" rx="44.2329" ry="18"/>
<text text-anchor="middle" x="236" y="-85.8" font-family="Times,serif" font-size="14.00">Message</text>
</g>
<!-- Message&#45;&gt;MessageFlag -->
<g id="edge4" class="edge"><title>Message&#45;&gt;MessageFlag</title>
<path fill="none" stroke="#52e5ee" d="M258.349,-67.5699C266.64,-59.6196 276.083,-50.564 284.552,-42.4433"/>
<ellipse fill="none" stroke="#52e5ee" cx="255.452" cy="-70.3474" rx="4.00002" ry="4.00002"/>
<polygon fill="#52e5ee" stroke="#52e5ee" points="284.776,-42.2282 295.109,-38.555 288.385,-38.7676 291.994,-35.307 291.994,-35.307 291.994,-35.307 288.385,-38.7676 288.88,-32.059 284.776,-42.2282 284.776,-42.2282"/>
</g>
<!-- User -->
<g id="node6" class="node"><title>User</title>
<ellipse fill="none" stroke="black" cx="313" cy="-162" rx="28.9004" ry="18"/>
<text text-anchor="middle" x="313" y="-157.8" font-family="Times,serif" font-size="14.00">User</text>
</g>
<!-- User&#45;&gt;MessageFlag -->
<g id="edge7" class="edge"><title>User&#45;&gt;MessageFlag</title>
<path fill="none" stroke="#0d5c17" d="M312.283,-135.558C311.576,-110.444 310.498,-72.164 309.772,-46.3932"/>
<ellipse fill="none" stroke="#0d5c17" cx="312.405" cy="-139.873" rx="4" ry="4"/>
<polygon fill="#0d5c17" stroke="#0d5c17" points="309.766,-46.1853 313.982,-36.0625 309.625,-41.1873 309.484,-36.1893 309.484,-36.1893 309.484,-36.1893 309.625,-41.1873 304.986,-36.316 309.766,-46.1853 309.766,-46.1853"/>
</g>
<!-- User&#45;&gt;Relation -->
<g id="edge8" class="edge"><title>User&#45;&gt;Relation</title>
<path fill="none" stroke="#dd1ef7" d="M333.174,-140.232C341.004,-132.172 350.013,-122.899 358.085,-114.589"/>
<ellipse fill="none" stroke="#dd1ef7" cx="330.208" cy="-143.286" rx="4.00002" ry="4.00002"/>
<polygon fill="#dd1ef7" stroke="#dd1ef7" points="358.207,-114.463 368.403,-110.426 361.691,-110.877 365.175,-107.29 365.175,-107.29 365.175,-107.29 361.691,-110.877 361.947,-104.155 358.207,-114.463 358.207,-114.463"/>
</g>
<!-- User&#45;&gt;Message -->
<g id="edge6" class="edge"><title>User&#45;&gt;Message</title>
<path fill="none" stroke="#0bbee2" d="M291.051,-141.047C281.594,-132.449 270.491,-122.355 260.743,-113.493"/>
<ellipse fill="none" stroke="#0bbee2" cx="294.086" cy="-143.805" rx="4.00002" ry="4.00002"/>
<polygon fill="#0bbee2" stroke="#0bbee2" points="260.672,-113.429 256.3,-103.373 256.973,-110.066 253.273,-106.703 253.273,-106.703 253.273,-106.703 256.973,-110.066 250.246,-110.032 260.672,-113.429 260.672,-113.429"/>
</g>
<!-- ActiveRecord::Base -->
<g id="node7" class="node"><title>ActiveRecord::Base</title>
<ellipse fill="none" stroke="black" cx="313" cy="-259" rx="88.1999" ry="18"/>
<text text-anchor="middle" x="313" y="-254.8" font-family="Times,serif" font-size="14.00">ActiveRecord::Base</text>
</g>
<!-- ActiveRecord::Base&#45;&gt;Api -->
<g id="edge1" class="edge"><title>ActiveRecord::Base&#45;&gt;Api</title>
<path fill="none" stroke="black" d="M293.234,-241.235C272.864,-223.956 241.284,-197.169 220.874,-179.857"/>
<polyline fill="none" stroke="black" points="216.947,-176.527 220.76,-179.761 "/>
</g>
<!-- ActiveRecord::Base&#45;&gt;MessageFlag -->
<g id="edge2" class="edge"><title>ActiveRecord::Base&#45;&gt;MessageFlag</title>
<path fill="none" stroke="black" d="M337.933,-241.503C383.98,-208.953 474.071,-134.219 433,-72 418.067,-49.3777 391.278,-36.3771 366.411,-28.9224"/>
<polyline fill="none" stroke="black" points="361.467,-27.5042 366.273,-28.883 "/>
</g>
<!-- ActiveRecord::Base&#45;&gt;Relation -->
<g id="edge3" class="edge"><title>ActiveRecord::Base&#45;&gt;Relation</title>
<path fill="none" stroke="black" d="M322.098,-240.941C330.234,-225.329 342.197,-201.462 351,-180 360.219,-157.523 368.869,-131.063 374.489,-112.869"/>
<polyline fill="none" stroke="black" points="375.992,-107.967 374.527,-112.748 "/>
</g>
<!-- ActiveRecord::Base&#45;&gt;Message -->
<g id="edge5" class="edge"><title>ActiveRecord::Base&#45;&gt;Message</title>
<path fill="none" stroke="black" d="M304.499,-241.053C296.664,-225.316 284.8,-201.192 275,-180 264.45,-157.187 252.97,-130.782 245.216,-112.693"/>
<polyline fill="none" stroke="black" points="243.132,-107.822 245.098,-112.418 "/>
</g>
<!-- ActiveRecord::Base&#45;&gt;User -->
<g id="edge9" class="edge"><title>ActiveRecord::Base&#45;&gt;User</title>
<path fill="none" stroke="black" d="M313,-240.576C313,-225.041 313,-202.217 313,-185.345"/>
<polyline fill="none" stroke="black" points="313,-180.314 313,-185.314 "/>
</g>
</g>
</svg>
