<?xml version="1.0" encoding="UTF-8" standalone="no"?>
<!DOCTYPE svg PUBLIC "-//W3C//DTD SVG 1.1//EN"
 "http://www.w3.org/Graphics/SVG/1.1/DTD/svg11.dtd">
<!-- Generated by graphviz version 2.28.0 (20120809.0112)
 -->
<!-- Title: models_diagram Pages: 1 -->
<svg width="472pt" height="674pt"
 viewBox="0.00 0.00 472.49 674.00" xmlns="http://www.w3.org/2000/svg" xmlns:xlink="http://www.w3.org/1999/xlink">
<g id="graph1" class="graph" transform="scale(1 1) rotate(0) translate(4 670)">
<title>models_diagram</title>
<polygon fill="white" stroke="white" points="-4,5 -4,-670 469.493,-670 469.493,5 -4,5"/>
<!-- _diagram_info -->
<g id="node1" class="node"><title>_diagram_info</title>
<text text-anchor="start" x="7.31415" y="-650.3" font-family="Times,serif" font-size="13.00">Models diagram</text>
<text text-anchor="start" x="7.31415" y="-634.7" font-family="Times,serif" font-size="13.00">Date: Dec 19 2013 &#45; 15:28</text>
<text text-anchor="start" x="7.31415" y="-619.1" font-family="Times,serif" font-size="13.00">Migration version: 20131219062007</text>
<text text-anchor="start" x="7.31415" y="-603.5" font-family="Times,serif" font-size="13.00">Generated by RailRoady 1.1.1</text>
<text text-anchor="start" x="7.31415" y="-587.9" font-family="Times,serif" font-size="13.00">http://railroady.prestonlee.com</text>
</g>
<!-- MessageFlag -->
<g id="node2" class="node"><title>MessageFlag</title>
<polyline fill="none" stroke="black" points="210.489,-0.6 319.511,-0.6 "/>
<path fill="none" stroke="black" d="M319.511,-0.6C325.511,-0.6 331.511,-6.6 331.511,-12.6"/>
<polyline fill="none" stroke="black" points="331.511,-12.6 331.511,-105.4 "/>
<path fill="none" stroke="black" d="M331.511,-105.4C331.511,-111.4 325.511,-117.4 319.511,-117.4"/>
<polyline fill="none" stroke="black" points="319.511,-117.4 210.489,-117.4 "/>
<path fill="none" stroke="black" d="M210.489,-117.4C204.489,-117.4 198.489,-111.4 198.489,-105.4"/>
<polyline fill="none" stroke="black" points="198.489,-105.4 198.489,-12.6 "/>
<path fill="none" stroke="black" d="M198.489,-12.6C198.489,-6.6 204.489,-0.6 210.489,-0.6"/>
<text text-anchor="middle" x="265" y="-100.8" font-family="Times,serif" font-size="14.00">MessageFlag</text>
<polyline fill="none" stroke="black" points="198.489,-92.6 331.511,-92.6 "/>
<text text-anchor="start" x="206.489" y="-76" font-family="Times,serif" font-size="14.00">id :integer</text>
<text text-anchor="start" x="206.489" y="-59.2" font-family="Times,serif" font-size="14.00">message_id :integer</text>
<text text-anchor="start" x="206.489" y="-42.4" font-family="Times,serif" font-size="14.00">user_id :integer</text>
<text text-anchor="start" x="206.489" y="-25.6" font-family="Times,serif" font-size="14.00">created_at :datetime</text>
<text text-anchor="start" x="206.489" y="-8.8" font-family="Times,serif" font-size="14.00">updated_at :datetime</text>
</g>
<!-- Relation -->
<g id="node3" class="node"><title>Relation</title>
<polyline fill="none" stroke="black" points="305.102,-154.4 414.898,-154.4 "/>
<path fill="none" stroke="black" d="M414.898,-154.4C420.898,-154.4 426.898,-160.4 426.898,-166.4"/>
<polyline fill="none" stroke="black" points="426.898,-166.4 426.898,-309.6 "/>
<path fill="none" stroke="black" d="M426.898,-309.6C426.898,-315.6 420.898,-321.6 414.898,-321.6"/>
<polyline fill="none" stroke="black" points="414.898,-321.6 305.102,-321.6 "/>
<path fill="none" stroke="black" d="M305.102,-321.6C299.102,-321.6 293.102,-315.6 293.102,-309.6"/>
<polyline fill="none" stroke="black" points="293.102,-309.6 293.102,-166.4 "/>
<path fill="none" stroke="black" d="M293.102,-166.4C293.102,-160.4 299.102,-154.4 305.102,-154.4"/>
<text text-anchor="middle" x="360" y="-305" font-family="Times,serif" font-size="14.00">Relation</text>
<polyline fill="none" stroke="black" points="293.102,-296.8 426.898,-296.8 "/>
<text text-anchor="start" x="301.102" y="-280.2" font-family="Times,serif" font-size="14.00">id :integer</text>
<text text-anchor="start" x="301.102" y="-263.4" font-family="Times,serif" font-size="14.00">user_from :integer</text>
<text text-anchor="start" x="301.102" y="-246.6" font-family="Times,serif" font-size="14.00">user_to :integer</text>
<text text-anchor="start" x="301.102" y="-229.8" font-family="Times,serif" font-size="14.00">event_entry :boolean</text>
<text text-anchor="start" x="301.102" y="-213" font-family="Times,serif" font-size="14.00">event_exit :boolean</text>
<text text-anchor="start" x="301.102" y="-196.2" font-family="Times,serif" font-size="14.00">event_post :boolean</text>
<text text-anchor="start" x="301.102" y="-179.4" font-family="Times,serif" font-size="14.00">created_at :datetime</text>
<text text-anchor="start" x="301.102" y="-162.6" font-family="Times,serif" font-size="14.00">updated_at :datetime</text>
</g>
<!-- Message -->
<g id="node4" class="node"><title>Message</title>
<polyline fill="none" stroke="black" points="113.319,-171.2 224.681,-171.2 "/>
<path fill="none" stroke="black" d="M224.681,-171.2C230.681,-171.2 236.681,-177.2 236.681,-183.2"/>
<polyline fill="none" stroke="black" points="236.681,-183.2 236.681,-292.8 "/>
<path fill="none" stroke="black" d="M236.681,-292.8C236.681,-298.8 230.681,-304.8 224.681,-304.8"/>
<polyline fill="none" stroke="black" points="224.681,-304.8 113.319,-304.8 "/>
<path fill="none" stroke="black" d="M113.319,-304.8C107.319,-304.8 101.319,-298.8 101.319,-292.8"/>
<polyline fill="none" stroke="black" points="101.319,-292.8 101.319,-183.2 "/>
<path fill="none" stroke="black" d="M101.319,-183.2C101.319,-177.2 107.319,-171.2 113.319,-171.2"/>
<text text-anchor="middle" x="169" y="-288.2" font-family="Times,serif" font-size="14.00">Message</text>
<polyline fill="none" stroke="black" points="101.319,-280 236.681,-280 "/>
<text text-anchor="start" x="109.319" y="-263.4" font-family="Times,serif" font-size="14.00">id :integer</text>
<text text-anchor="start" x="109.319" y="-246.6" font-family="Times,serif" font-size="14.00">message :string</text>
<text text-anchor="start" x="109.319" y="-229.8" font-family="Times,serif" font-size="14.00">message_img :binary</text>
<text text-anchor="start" x="109.319" y="-213" font-family="Times,serif" font-size="14.00">user_id :integer</text>
<text text-anchor="start" x="109.319" y="-196.2" font-family="Times,serif" font-size="14.00">created_at :datetime</text>
<text text-anchor="start" x="109.319" y="-179.4" font-family="Times,serif" font-size="14.00">updated_at :datetime</text>
</g>
<!-- Message&#45;&gt;MessageFlag -->
<g id="edge6" class="edge"><title>Message&#45;&gt;MessageFlag</title>
<path fill="none" stroke="#df50a7" d="M208.582,-164.021C215.348,-151.545 222.346,-138.644 229.012,-126.352"/>
<ellipse fill="none" stroke="#df50a7" cx="206.654" cy="-167.576" rx="4.00002" ry="4.00002"/>
<polygon fill="#df50a7" stroke="#df50a7" points="229.033,-126.314 237.756,-119.67 231.417,-121.919 233.8,-117.524 233.8,-117.524 233.8,-117.524 231.417,-121.919 229.845,-115.379 229.033,-126.314 229.033,-126.314"/>
</g>
<!-- User -->
<g id="node5" class="node"><title>User</title>
<polyline fill="none" stroke="black" points="210.489,-359 319.511,-359 "/>
<path fill="none" stroke="black" d="M319.511,-359C325.511,-359 331.511,-365 331.511,-371"/>
<polyline fill="none" stroke="black" points="331.511,-371 331.511,-531 "/>
<path fill="none" stroke="black" d="M331.511,-531C331.511,-537 325.511,-543 319.511,-543"/>
<polyline fill="none" stroke="black" points="319.511,-543 210.489,-543 "/>
<path fill="none" stroke="black" d="M210.489,-543C204.489,-543 198.489,-537 198.489,-531"/>
<polyline fill="none" stroke="black" points="198.489,-531 198.489,-371 "/>
<path fill="none" stroke="black" d="M198.489,-371C198.489,-365 204.489,-359 210.489,-359"/>
<text text-anchor="middle" x="265" y="-526.4" font-family="Times,serif" font-size="14.00">User</text>
<polyline fill="none" stroke="black" points="198.489,-518.2 331.511,-518.2 "/>
<text text-anchor="start" x="206.489" y="-501.6" font-family="Times,serif" font-size="14.00">id :integer</text>
<text text-anchor="start" x="206.489" y="-484.8" font-family="Times,serif" font-size="14.00">user_name :string</text>
<text text-anchor="start" x="206.489" y="-468" font-family="Times,serif" font-size="14.00">phone_no :string</text>
<text text-anchor="start" x="206.489" y="-451.2" font-family="Times,serif" font-size="14.00">imsi :string</text>
<text text-anchor="start" x="206.489" y="-434.4" font-family="Times,serif" font-size="14.00">ecgi :string</text>
<text text-anchor="start" x="206.489" y="-417.6" font-family="Times,serif" font-size="14.00">description :string</text>
<text text-anchor="start" x="206.489" y="-400.8" font-family="Times,serif" font-size="14.00">profile_img :binary</text>
<text text-anchor="start" x="206.489" y="-384" font-family="Times,serif" font-size="14.00">created_at :datetime</text>
<text text-anchor="start" x="206.489" y="-367.2" font-family="Times,serif" font-size="14.00">updated_at :datetime</text>
</g>
<!-- User&#45;&gt;MessageFlag -->
<g id="edge12" class="edge"><title>User&#45;&gt;MessageFlag</title>
<path fill="none" stroke="#25adbe" d="M265,-350.152C265,-280.485 265,-189.352 265,-127.962"/>
<ellipse fill="none" stroke="#25adbe" cx="265" cy="-354.562" rx="4" ry="4"/>
<polygon fill="#25adbe" stroke="#25adbe" points="265,-127.616 269.5,-117.616 265,-122.616 265,-117.616 265,-117.616 265,-117.616 265,-122.616 260.5,-117.616 265,-127.616 265,-127.616"/>
</g>
<!-- User&#45;&gt;Relation -->
<g id="edge14" class="edge"><title>User&#45;&gt;Relation</title>
<path fill="none" stroke="#893b29" d="M309.387,-351.414C312.461,-344.587 315.552,-337.721 318.609,-330.931"/>
<ellipse fill="none" stroke="#893b29" cx="307.62" cy="-355.339" rx="4.00002" ry="4.00002"/>
<polygon fill="#893b29" stroke="#893b29" points="318.646,-330.848 326.855,-323.577 320.699,-326.289 322.752,-321.73 322.752,-321.73 322.752,-321.73 320.699,-326.289 318.649,-319.882 318.646,-330.848 318.646,-330.848"/>
</g>
<!-- User&#45;&gt;Message -->
<g id="edge10" class="edge"><title>User&#45;&gt;Message</title>
<path fill="none" stroke="#f076af" d="M220.088,-351.288C214.386,-338.755 208.625,-326.093 203.13,-314.015"/>
<ellipse fill="none" stroke="#f076af" cx="221.934" cy="-355.345" rx="4.00002" ry="4.00002"/>
<polygon fill="#f076af" stroke="#f076af" points="203.126,-314.007 203.081,-303.041 201.056,-309.456 198.985,-304.905 198.985,-304.905 198.985,-304.905 201.056,-309.456 194.889,-306.768 203.126,-314.007 203.126,-314.007"/>
</g>
<!-- ActiveRecord::Base -->
<g id="node6" class="node"><title>ActiveRecord::Base</title>
<ellipse fill="none" stroke="black" cx="313" cy="-623" rx="88.1999" ry="18"/>
<text text-anchor="middle" x="313" y="-618.8" font-family="Times,serif" font-size="14.00">ActiveRecord::Base</text>
</g>
<!-- ActiveRecord::Base&#45;&gt;MessageFlag -->
<g id="edge2" class="edge"><title>ActiveRecord::Base&#45;&gt;MessageFlag</title>
<path fill="none" stroke="black" d="M326.086,-604.988C373.428,-541.23 528.198,-312.029 435,-154 412.728,-116.235 369.238,-92.5853 331.822,-78.4533"/>
</g>
<!-- ActiveRecord::Base&#45;&gt;Relation -->
<g id="edge4" class="edge"><title>ActiveRecord::Base&#45;&gt;Relation</title>
<path fill="none" stroke="black" d="M320.362,-605.021C326.747,-589.464 335.63,-565.631 340,-544 355.002,-469.75 359.492,-383.47 360.529,-321.664"/>
</g>
<!-- ActiveRecord::Base&#45;&gt;Message -->
<g id="edge8" class="edge"><title>ActiveRecord::Base&#45;&gt;Message</title>
<path fill="none" stroke="black" d="M270.616,-607.177C242.35,-594.901 207.161,-574.478 189,-544 145.606,-471.177 148.581,-370.472 156.953,-305.041"/>
</g>
<!-- ActiveRecord::Base&#45;&gt;User -->
<g id="edge16" class="edge"><title>ActiveRecord::Base&#45;&gt;User</title>
<path fill="none" stroke="black" d="M308.133,-604.764C303.891,-589.739 297.385,-566.697 290.702,-543.028"/>
</g>
</g>
</svg>
