<?xml version="1.0" encoding="UTF-8" standalone="no"?>
<!DOCTYPE svg PUBLIC "-//W3C//DTD SVG 1.1//EN"
 "http://www.w3.org/Graphics/SVG/1.1/DTD/svg11.dtd">
<!-- Generated by graphviz version 2.28.0 (20120809.0112)
 -->
<!-- Title: models_diagram Pages: 1 -->
<svg width="423pt" height="310pt"
 viewBox="0.00 0.00 423.34 310.00" xmlns="http://www.w3.org/2000/svg" xmlns:xlink="http://www.w3.org/1999/xlink">
<g id="graph1" class="graph" transform="scale(1 1) rotate(0) translate(4 306)">
<title>models_diagram</title>
<polygon fill="white" stroke="white" points="-4,5 -4,-306 420.336,-306 420.336,5 -4,5"/>
<!-- _diagram_info -->
<g id="node1" class="node"><title>_diagram_info</title>
<text text-anchor="start" x="7.31415" y="-286.3" font-family="Times,serif" font-size="13.00">Models diagram</text>
<text text-anchor="start" x="7.31415" y="-270.7" font-family="Times,serif" font-size="13.00">Date: Dec 19 2013 &#45; 15:28</text>
<text text-anchor="start" x="7.31415" y="-255.1" font-family="Times,serif" font-size="13.00">Migration version: 20131219062007</text>
<text text-anchor="start" x="7.31415" y="-239.5" font-family="Times,serif" font-size="13.00">Generated by RailRoady 1.1.1</text>
<text text-anchor="start" x="7.31415" y="-223.9" font-family="Times,serif" font-size="13.00">http://railroady.prestonlee.com</text>
</g>
<!-- MessageFlag -->
<g id="node2" class="node"><title>MessageFlag</title>
<ellipse fill="none" stroke="black" cx="280" cy="-18" rx="61.4814" ry="18"/>
<text text-anchor="middle" x="280" y="-13.8" font-family="Times,serif" font-size="14.00">MessageFlag</text>
</g>
<!-- Relation -->
<g id="node3" class="node"><title>Relation</title>
<ellipse fill="none" stroke="black" cx="352" cy="-90" rx="43.1406" ry="18"/>
<text text-anchor="middle" x="352" y="-85.8" font-family="Times,serif" font-size="14.00">Relation</text>
</g>
<!-- Message -->
<g id="node4" class="node"><title>Message</title>
<ellipse fill="none" stroke="black" cx="207" cy="-90" rx="44.2329" ry="18"/>
<text text-anchor="middle" x="207" y="-85.8" font-family="Times,serif" font-size="14.00">Message</text>
</g>
<!-- Message&#45;&gt;MessageFlag -->
<g id="edge6" class="edge"><title>Message&#45;&gt;MessageFlag</title>
<path fill="none" stroke="#530226" d="M229.349,-67.5699C237.64,-59.6196 247.083,-50.564 255.552,-42.4433"/>
<ellipse fill="none" stroke="#530226" cx="226.452" cy="-70.3474" rx="4.00002" ry="4.00002"/>
<polygon fill="#530226" stroke="#530226" points="255.776,-42.2282 266.109,-38.555 259.385,-38.7676 262.994,-35.307 262.994,-35.307 262.994,-35.307 259.385,-38.7676 259.88,-32.059 255.776,-42.2282 255.776,-42.2282"/>
</g>
<!-- User -->
<g id="node5" class="node"><title>User</title>
<ellipse fill="none" stroke="black" cx="284" cy="-162" rx="28.9004" ry="18"/>
<text text-anchor="middle" x="284" y="-157.8" font-family="Times,serif" font-size="14.00">User</text>
</g>
<!-- User&#45;&gt;MessageFlag -->
<g id="edge12" class="edge"><title>User&#45;&gt;MessageFlag</title>
<path fill="none" stroke="#32fbbc" d="M283.283,-135.558C282.576,-110.444 281.498,-72.164 280.772,-46.3932"/>
<ellipse fill="none" stroke="#32fbbc" cx="283.405" cy="-139.873" rx="4" ry="4"/>
<polygon fill="#32fbbc" stroke="#32fbbc" points="280.766,-46.1853 284.982,-36.0625 280.625,-41.1873 280.484,-36.1893 280.484,-36.1893 280.484,-36.1893 280.625,-41.1873 275.986,-36.316 280.766,-46.1853 280.766,-46.1853"/>
</g>
<!-- User&#45;&gt;Relation -->
<g id="edge14" class="edge"><title>User&#45;&gt;Relation</title>
<path fill="none" stroke="#4d0627" d="M304.174,-140.232C312.004,-132.172 321.013,-122.899 329.085,-114.589"/>
<ellipse fill="none" stroke="#4d0627" cx="301.208" cy="-143.286" rx="4.00002" ry="4.00002"/>
<polygon fill="#4d0627" stroke="#4d0627" points="329.207,-114.463 339.403,-110.426 332.691,-110.877 336.175,-107.29 336.175,-107.29 336.175,-107.29 332.691,-110.877 332.947,-104.155 329.207,-114.463 329.207,-114.463"/>
</g>
<!-- User&#45;&gt;Message -->
<g id="edge10" class="edge"><title>User&#45;&gt;Message</title>
<path fill="none" stroke="#8dfc42" d="M262.051,-141.047C252.594,-132.449 241.491,-122.355 231.743,-113.493"/>
<ellipse fill="none" stroke="#8dfc42" cx="265.086" cy="-143.805" rx="4.00002" ry="4.00002"/>
<polygon fill="#8dfc42" stroke="#8dfc42" points="231.672,-113.429 227.3,-103.373 227.973,-110.066 224.273,-106.703 224.273,-106.703 224.273,-106.703 227.973,-110.066 221.246,-110.032 231.672,-113.429 231.672,-113.429"/>
</g>
<!-- ActiveRecord::Base -->
<g id="node6" class="node"><title>ActiveRecord::Base</title>
<ellipse fill="none" stroke="black" cx="313" cy="-259" rx="88.1999" ry="18"/>
<text text-anchor="middle" x="313" y="-254.8" font-family="Times,serif" font-size="14.00">ActiveRecord::Base</text>
</g>
<!-- ActiveRecord::Base&#45;&gt;MessageFlag -->
<g id="edge2" class="edge"><title>ActiveRecord::Base&#45;&gt;MessageFlag</title>
<path fill="none" stroke="black" d="M332.616,-241.316C369.605,-207.801 442.618,-130.504 404,-72 388.072,-47.8695 358.653,-34.6865 332.467,-27.5042"/>
</g>
<!-- ActiveRecord::Base&#45;&gt;Relation -->
<g id="edge4" class="edge"><title>ActiveRecord::Base&#45;&gt;Relation</title>
<path fill="none" stroke="black" d="M317.027,-240.757C324.5,-208.756 340.436,-140.518 347.937,-108.399"/>
</g>
<!-- ActiveRecord::Base&#45;&gt;Message -->
<g id="edge8" class="edge"><title>ActiveRecord::Base&#45;&gt;Message</title>
<path fill="none" stroke="black" d="M295.963,-241.213C281.356,-226.162 260.444,-202.97 246,-180 231.273,-156.579 219.409,-126.641 212.784,-108.147"/>
</g>
<!-- ActiveRecord::Base&#45;&gt;User -->
<g id="edge16" class="edge"><title>ActiveRecord::Base&#45;&gt;User</title>
<path fill="none" stroke="black" d="M307.815,-241.016C302.537,-223.724 294.402,-197.076 289.14,-179.837"/>
</g>
</g>
</svg>
